<svg width="450" height="136" viewBox="0 0 450 136" fill="none" xmlns="http://www.w3.org/2000/svg">
<path d="M13.5645 0.00585938C13.5931 0.0100456 13.6217 0.0172079 13.6504 0.0283203C13.6953 0.0115387 13.7534 0.00586042 13.8047 0.00585938C14.1382 0.00586211 14.4141 0.237466 14.4141 0.529297L14.4219 0.80957C14.5823 3.68319 17.1971 5.96856 20.3896 5.96875C23.6861 5.96875 26.373 3.53325 26.373 0.529297C26.3731 0.237464 26.642 0.00585939 26.9824 0.00585938H36.8115C37.1455 0.00586211 37.4209 0.237466 37.4209 0.529297L37.4287 0.80957C37.5892 3.68329 40.2042 5.96874 43.3975 5.96875C46.6927 5.96875 49.3799 3.53325 49.3799 0.529297C49.3799 0.237551 49.6492 0.00599671 49.9883 0.00585938H61.2871C61.6263 0.00586207 61.9023 0.237466 61.9023 0.529297L61.9102 0.80957C62.0711 3.68329 64.6933 5.96875 67.8916 5.96875L68.1982 5.96191C71.3525 5.81636 73.8672 3.43947 73.8672 0.529297C73.8672 0.237478 74.1432 0.00588062 74.4766 0.00585938H85.7812L85.9033 0.0166016C86.1795 0.06505 86.3906 0.274017 86.3906 0.529297L86.3984 0.80957C86.5593 3.6833 89.1815 5.96875 92.3799 5.96875L92.6865 5.96191C95.8405 5.81623 98.3564 3.43938 98.3564 0.529297C98.3565 0.237464 98.6312 0.00585939 98.9717 0.00585938H110.271L110.394 0.0166016C110.673 0.0648641 110.879 0.273843 110.879 0.529297L110.887 0.80957C111.048 3.68316 113.668 5.96855 116.861 5.96875C120.164 5.96875 122.844 3.53324 122.844 0.529297C122.844 0.237464 123.12 0.00585939 123.459 0.00585938H135.688L135.812 0.015625C136.093 0.063953 136.303 0.273896 136.303 0.529297V135.471L136.29 135.577C136.241 135.784 136.053 135.947 135.812 135.989L135.688 136H123.459C123.12 136 122.844 135.763 122.844 135.471C122.844 132.472 120.163 130.031 116.861 130.031C113.668 130.031 111.047 132.322 110.887 135.191L110.879 135.471C110.879 135.727 110.673 135.94 110.394 135.989L110.271 136H98.9717C98.6312 136 98.3564 135.763 98.3564 135.471C98.3563 132.566 95.8404 130.184 92.6865 130.038L92.3799 130.031C89.1814 130.031 86.5592 132.322 86.3984 135.191L86.3906 135.471C86.3906 135.727 86.1795 135.94 85.9033 135.989L85.7812 136H74.4766C74.1432 136 73.8672 135.763 73.8672 135.471C73.8671 132.566 71.3524 130.184 68.1982 130.038L67.8916 130.031C64.6932 130.031 62.0709 132.322 61.9102 135.191L61.9023 135.471C61.9023 135.763 61.6264 136 61.2871 136H51.502C51.1686 136 50.8926 135.763 50.8926 135.471C50.8925 132.566 48.3778 130.184 45.2236 130.038L44.917 130.031C41.7241 130.031 39.1031 132.322 38.9424 135.191L38.9346 135.471C38.9346 135.763 38.6644 136 38.3252 136H26.9824C26.642 136 26.373 135.763 26.373 135.471C26.3729 132.472 23.686 130.031 20.3896 130.031C17.197 130.031 14.5822 132.322 14.4219 135.191L14.4141 135.471C14.4141 135.763 14.1382 136 13.8047 136C13.7477 136 13.6895 135.995 13.6318 135.973C13.6064 135.981 13.5811 135.987 13.5557 135.99L13.4785 135.995H0.75C0.457887 135.995 0.210644 135.814 0.15332 135.576L0.140625 135.471V122.431C0.140625 122.276 0.218307 122.127 0.359375 122.028C0.499759 121.929 0.679959 121.886 0.859375 121.913C1.08949 121.951 1.33376 121.968 1.60938 121.968C4.80163 121.968 7.41779 119.676 7.57812 116.802L7.58594 116.521C7.58572 113.529 4.90445 111.094 1.60938 111.094C1.33376 111.094 1.08949 111.109 0.859375 111.143C0.724895 111.163 0.589903 111.147 0.47168 111.096L0.359375 111.033C0.253696 110.954 0.18359 110.854 0.155273 110.741L0.140625 110.624V98.6533C0.14072 98.4985 0.218393 98.3507 0.359375 98.251C0.499791 98.1518 0.679865 98.1077 0.859375 98.1357L1.03516 98.1602C1.21378 98.181 1.40275 98.1904 1.60938 98.1904L1.91602 98.1836C4.96752 98.0425 7.42279 95.8069 7.57812 93.0303L7.58594 92.751V92.1611L7.57812 91.8809C7.41753 89.0122 4.80146 86.7266 1.60938 86.7266C1.47477 86.7266 1.3448 86.7301 1.21973 86.7383L0.859375 86.7754C0.654313 86.8085 0.454761 86.7484 0.327148 86.6328C0.158183 86.5599 0.0340641 86.4158 0.00585938 86.248L0 86.1748V74.1982C0.000116506 74.0432 0.0830061 73.895 0.224609 73.7959C0.359205 73.6968 0.544807 73.6528 0.723633 73.6855C0.948698 73.7183 1.19205 73.7344 1.46777 73.7344L1.77539 73.7275C4.82755 73.586 7.28135 71.3513 7.43652 68.5742L7.44434 68.2949C7.44434 65.3912 4.92934 63.0141 1.77539 62.8682L1.46777 62.8604C1.26104 62.8604 1.07267 62.8699 0.896484 62.8906L0.723633 62.915C0.544819 62.9429 0.358768 62.8987 0.217773 62.7988C0.116518 62.7251 0.0442436 62.623 0.0146484 62.5117L0 62.3975V62.3916L0.140625 50.0566C0.140625 49.9031 0.224808 49.7545 0.365234 49.6602C0.499875 49.5611 0.685679 49.5169 0.859375 49.5449L1.03516 49.5693C1.21378 49.59 1.40274 49.5996 1.60938 49.5996C4.80153 49.5996 7.41765 47.3085 7.57812 44.4336L7.58594 44.1533C7.5859 41.1614 4.90456 38.7256 1.60938 38.7256C1.33376 38.7256 1.08949 38.7417 0.859375 38.7744C0.724902 38.7948 0.589899 38.7787 0.47168 38.7275L0.359375 38.6641C0.218318 38.5593 0.140637 38.4158 0.140625 38.2559V24.7471C0.140694 24.5936 0.21837 24.4438 0.359375 24.3447C0.499747 24.2458 0.679993 24.2007 0.859375 24.2295C1.08953 24.2623 1.33371 24.2852 1.60938 24.2852C4.80152 24.2852 7.41764 21.9936 7.57812 19.1289L7.58594 18.8496C7.58589 15.9456 5.0693 13.5674 1.91602 13.4219L1.60938 13.415C1.40277 13.415 1.21376 13.4245 1.03516 13.4453L0.859375 13.4707C0.679958 13.4987 0.49976 13.4543 0.359375 13.3545C0.218314 13.2562 0.140633 13.1065 0.140625 12.9521V0.529297C0.140635 0.237526 0.416027 0.000100656 0.75 0H13.4785L13.5645 0.00585938ZM1.14062 12.4316C1.29312 12.4204 1.44879 12.415 1.60938 12.415C5.36522 12.415 8.58589 15.2124 8.58594 18.8496C8.58594 22.4822 5.36595 25.2852 1.60938 25.2852C1.44386 25.2852 1.28822 25.2781 1.14062 25.2666V37.7412C1.29165 37.7309 1.44716 37.7256 1.60938 37.7256C5.36432 37.7256 8.5859 40.5209 8.58594 44.1533C8.58594 47.796 5.36714 50.5996 1.60938 50.5996C1.44813 50.5996 1.29002 50.5944 1.13379 50.583L1.00586 61.876C1.15758 61.8652 1.31137 61.8604 1.46777 61.8604C5.22486 61.8604 8.44434 64.6577 8.44434 68.2949C8.44414 71.9323 5.22615 74.7344 1.46777 74.7344C1.30587 74.7344 1.15052 74.7291 1 74.7188V85.7529C1.19702 85.7351 1.4005 85.7266 1.60938 85.7266C5.36511 85.7266 8.58594 88.523 8.58594 92.1611V92.751C8.58571 96.3877 5.36635 99.1904 1.60938 99.1904C1.44947 99.1904 1.29371 99.186 1.14062 99.1748V110.108C1.29258 110.098 1.4482 110.094 1.60938 110.094C5.36424 110.094 8.58572 112.889 8.58594 116.521C8.58594 120.164 5.36711 122.968 1.60938 122.968C1.44988 122.968 1.29406 122.963 1.14062 122.952V134.995H13.4062L13.4355 134.986C13.7064 131.588 16.8006 129.031 20.3896 129.031C23.9828 129.031 27.0874 131.594 27.3516 135H37.9551C38.2192 131.594 41.3243 129.031 44.917 129.031C48.5113 129.031 51.6074 131.595 51.8711 135H60.9229C61.1871 131.593 64.2942 129.031 67.8916 129.031C71.486 129.031 74.5831 131.595 74.8467 135H85.4111C85.6754 131.593 88.7824 129.031 92.3799 129.031C95.9737 129.031 99.0712 131.595 99.335 135H109.898C110.163 131.594 113.268 129.031 116.861 129.031C120.461 129.031 123.56 131.595 123.823 135H135.303V1.00586H123.823C123.557 4.41392 120.458 6.96875 116.861 6.96875C113.271 6.96855 110.165 4.41447 109.898 1.00586H99.335C99.0686 4.41337 95.9712 6.96852 92.3799 6.96875C88.7849 6.96875 85.678 4.41509 85.4111 1.00586H74.8467C74.5804 4.41328 71.4835 6.96864 67.8916 6.96875C64.2968 6.96875 61.1898 4.41519 60.9229 1.00586H50.3594C50.0924 4.41461 46.9868 6.96875 43.3975 6.96875C39.8056 6.96874 36.7067 4.41351 36.4404 1.00586H27.3516C27.0847 4.41449 23.9803 6.96875 20.3896 6.96875C16.8024 6.96856 13.708 4.41907 13.4355 1.01758L13.3916 1H1.14062V12.4316ZM180.032 102.493C180.032 108.345 178.469 112.958 175.344 116.33C172.218 119.702 167.952 121.389 162.544 121.389C159.071 121.389 156.045 120.645 153.465 119.157C150.885 117.669 148.851 115.562 147.362 112.834C145.924 110.057 145.422 106.1 145.323 102.38L151.307 102.493C151.455 106.758 152.448 109.933 154.283 112.016C156.119 114.099 158.873 115.14 162.544 115.14C166.215 115.14 168.969 114.099 170.805 112.016C172.69 109.883 173.633 106.709 173.633 102.493V67.3799H180.032V102.493ZM209.027 79.8779C212.649 79.878 215.799 80.721 218.479 82.4072C221.207 84.0934 223.315 86.4741 224.804 89.5488C226.292 92.6237 227.036 96.2689 227.036 100.484C227.036 104.65 226.292 108.295 224.804 111.42C223.315 114.495 221.207 116.875 218.479 118.562C215.799 120.248 212.649 121.091 209.027 121.091C205.406 121.091 202.23 120.248 199.501 118.562C196.822 116.875 194.738 114.495 193.25 111.42C191.762 108.296 191.018 104.65 191.018 100.484C191.018 96.2689 191.762 92.6237 193.25 89.5488C194.738 86.4741 196.822 84.0934 199.501 82.4072C202.23 80.721 205.406 79.8779 209.027 79.8779ZM244.272 104.428C244.273 108.246 244.943 111.073 246.282 112.908C247.671 114.693 249.78 115.586 252.607 115.586C255.683 115.586 258.114 114.594 259.9 112.61C261.686 110.577 262.58 107.8 262.58 104.278V80.7705H268.831V120.198H262.878V113.81C262.024 115.706 260.834 117.265 259.306 118.487C257.073 120.223 254.27 121.091 250.896 121.091C246.977 121.091 243.851 119.777 241.52 117.148C239.188 114.47 238.022 110.8 238.021 106.139V80.7705H244.272V104.428ZM386.178 79.8779C390.94 79.878 394.636 81.3161 397.266 84.1924C399.895 87.0192 401.21 90.9373 401.21 95.9463V112.312C401.21 113.205 401.409 113.826 401.806 114.173C402.203 114.52 402.798 114.693 403.592 114.693H406.122V120.198C405.824 120.248 405.353 120.272 404.708 120.272C404.063 120.322 403.443 120.348 402.848 120.348C401.161 120.348 399.722 120.075 398.531 119.529C397.39 118.984 396.522 118.115 395.927 116.925C395.611 116.268 395.373 115.513 395.211 114.661C394.796 115.401 394.266 116.106 393.619 116.776C392.329 118.115 390.692 119.182 388.708 119.976C386.723 120.72 384.59 121.091 382.308 121.091C379.827 121.091 377.595 120.645 375.61 119.752C373.626 118.859 372.063 117.619 370.922 116.032C369.781 114.396 369.21 112.511 369.21 110.379C369.21 107.006 370.202 104.402 372.187 102.567C374.221 100.683 377.397 99.3187 381.713 98.4756L394.959 95.7979C394.959 92.4255 394.19 89.9208 392.652 88.2842C391.164 86.6476 389.006 85.8291 386.178 85.8291C383.449 85.8291 381.315 86.4496 379.777 87.6895C378.24 88.8797 377.172 90.6153 376.577 92.8965L369.954 92.376C370.698 88.6564 372.46 85.6554 375.238 83.374C378.066 81.0432 381.713 79.8779 386.178 79.8779ZM298.575 88.3369C299.16 86.0898 300.075 84.3611 301.323 83.1514C303.01 81.5643 305.243 80.7705 308.021 80.7705H316.133V86.4248H308.096C306.161 86.4248 304.523 86.8207 303.184 87.6143C301.894 88.3581 300.902 89.4742 300.207 90.9619C299.512 92.4001 299.165 94.2106 299.165 96.3926V114.693H311.668V120.198H282.645V114.693H292.914V86.2754H282.645V80.7705H298.123L298.575 88.3369ZM345.276 79.8779C348.303 79.878 350.808 80.5478 352.792 81.8867C354.826 83.2258 356.364 85.036 357.406 87.3174C358.448 89.5491 358.969 92.0538 358.969 94.8311V120.198H352.718V96.6162C352.718 92.9462 351.998 90.1688 350.56 88.2842C349.121 86.3501 346.913 85.3828 343.937 85.3828C341.903 85.3828 340.067 85.8291 338.43 86.7217C336.793 87.5647 335.478 88.8295 334.485 90.5156C333.543 92.1523 333.071 94.1861 333.071 96.6162V120.198H326.82V80.7705H332.551L332.707 87.8252C333.209 86.5131 333.876 85.3767 334.709 84.416C336.049 82.8786 337.636 81.7381 339.472 80.9941C341.307 80.2503 343.242 79.8779 345.276 79.8779ZM425.367 67.3799C428.989 67.3799 431.718 68.3224 433.554 70.207C435.439 72.042 436.382 74.7695 436.382 78.3896V114.693H450V120.198H414.279V114.693H430.13V77.9434C430.13 76.3564 429.684 75.1163 428.791 74.2236C427.898 73.331 426.657 72.8848 425.069 72.8848H415.768V67.3799H425.367ZM56.0244 119H51.665V114.714H56.0244V119ZM61.5469 119H57.1875V114.714H61.5469V119ZM67.0693 119H62.71V114.714H67.0693V119ZM72.5918 119H68.2314V114.714H72.5918V119ZM78.1143 119H73.7539V114.714H78.1143V119ZM83.6357 119H79.2764V114.714H83.6357V119ZM382.903 103.534C380.224 104.03 378.363 104.799 377.321 105.841C376.28 106.833 375.759 108.147 375.759 109.783C375.759 111.618 376.379 113.057 377.619 114.099C378.909 115.091 380.671 115.586 382.903 115.586C385.582 115.586 387.815 115.14 389.601 114.247C391.387 113.305 392.726 112.015 393.619 110.379C394.512 108.693 394.959 106.758 394.959 104.576V101.154L382.903 103.534ZM209.027 85.8291C205.406 85.8291 202.577 87.1439 200.543 89.7725C198.559 92.3513 197.566 95.922 197.566 100.484C197.566 105.047 198.559 108.643 200.543 111.271C202.577 113.85 205.406 115.14 209.027 115.14C212.649 115.14 215.452 113.85 217.437 111.271C219.471 108.643 220.487 105.047 220.487 100.484C220.487 95.9219 219.47 92.3513 217.437 89.7725C215.452 87.144 212.649 85.8292 209.027 85.8291ZM44.9805 113.571H40.6201V109.286H44.9805V113.571ZM50.5029 113.571H46.1426V109.286H50.5029V113.571ZM56.0244 113.571H51.665V109.286H56.0244V113.571ZM61.5469 113.571H57.1875V109.286H61.5469V113.571ZM67.0693 113.571H62.71V109.286H67.0693V113.571ZM72.5918 113.571H68.2314V109.286H72.5918V113.571ZM78.1143 113.571H73.7539V109.286H78.1143V113.571ZM83.6357 113.571H79.2764V109.286H83.6357V113.571ZM89.1582 113.571H84.7988V109.286H89.1582V113.571ZM94.6807 113.571H90.3213V109.286H94.6807V113.571ZM100.203 113.571H95.8428V109.286H100.203V113.571ZM39.458 108.143H35.0986V103.857H39.458V108.143ZM44.9805 108.143H40.6201V103.857H44.9805V108.143ZM50.5029 108.143H46.1426V103.857H50.5029V108.143ZM94.6807 108.143H90.3213V103.857H94.6807V108.143ZM100.203 108.143H95.8428V103.857H100.203V108.143ZM105.726 108.143H101.365V103.857H105.726V108.143ZM39.458 102.714H35.0986V98.4287H39.458V102.714ZM44.9805 102.714H40.6201V98.4287H44.9805V102.714ZM100.203 102.714H95.8428V98.4287H100.203V102.714ZM105.726 102.714H101.365V98.4287H105.726V102.714ZM33.9355 97.2861H29.5762V93H33.9355V97.2861ZM39.458 97.2861H35.0986V93H39.458V97.2861ZM105.726 97.2861H101.365V93H105.726V97.2861ZM111.247 97.2861H106.888V93H111.247V97.2861ZM33.9355 91.8574H29.5762V87.5713H33.9355V91.8574ZM39.458 91.8574H35.0986V87.5713H39.458V91.8574ZM105.726 91.8574H101.365V87.5713H105.726V91.8574ZM111.247 91.8574H106.888V87.5713H111.247V91.8574ZM28.4131 86.4287H24.0537V82.1426H28.4131V86.4287ZM33.9355 86.4287H29.5762V82.1426H33.9355V86.4287ZM105.726 86.4287H101.365V82.1426H105.726V86.4287ZM111.247 86.4287H106.888V82.1426H111.247V86.4287ZM28.4131 81H24.0537V76.7139H28.4131V81ZM33.9355 81H29.5762V76.7139H33.9355V81ZM28.4131 75.5713H24.0537V71.2861H28.4131V75.5713ZM33.9355 75.5713H29.5762V71.2861H33.9355V75.5713ZM28.4131 70.1426H24.0537V65.8574H28.4131V70.1426ZM33.9355 70.1426H29.5762V65.8574H33.9355V70.1426ZM28.4131 64.7139H24.0537V60.4287H28.4131V64.7139ZM33.9355 64.7139H29.5762V60.4287H33.9355V64.7139ZM28.4131 59.2861H24.0537V55H28.4131V59.2861ZM33.9355 59.2861H29.5762V55H33.9355V59.2861ZM197.915 28.0352C200.594 28.0352 202.756 28.5838 204.757 29.6807C206.758 30.7775 208.275 32.3581 209.404 34.4229C210.534 36.4875 211.082 38.875 211.082 41.6494V43.6494H188.749C188.878 46.5852 189.815 48.9085 191.622 50.5537C193.429 52.2312 195.656 53.0381 198.335 53.0381C201.013 53.038 202.498 52.4894 203.757 51.4248C205.015 50.3602 205.983 49.0697 206.661 47.5537L210.469 49.3926C209.92 50.5537 209.146 51.7148 208.146 52.876C207.145 54.0373 205.854 55.0061 204.272 55.7803C202.691 56.5544 200.658 56.9414 198.205 56.9414V56.9736C195.43 56.9736 193.01 56.3927 190.912 55.1992C188.814 54.0378 187.201 52.3604 186.039 50.2637C184.877 48.1344 184.296 45.6818 184.296 42.875V42.1982C184.296 39.3592 184.877 36.8744 186.039 34.7451C187.201 32.6162 188.815 30.9709 190.848 29.8096C192.913 28.6482 195.236 28.0352 197.915 28.0352ZM283.761 28.0352C286.439 28.0352 288.602 28.5838 290.603 29.6807C292.604 30.7775 294.122 32.3582 295.251 34.4229C296.38 36.4874 296.929 38.875 296.929 41.6494V43.6494H274.596C274.692 46.5852 275.661 48.9085 277.436 50.5537C279.242 52.2312 281.47 53.038 284.148 53.0381C286.826 53.0381 288.311 52.4893 289.57 51.4248C290.829 50.3603 291.797 49.0697 292.475 47.5537L296.283 49.3926C295.734 50.5536 294.959 51.7149 293.96 52.876C292.959 54.0373 291.668 55.0061 290.087 55.7803C288.506 56.5546 286.472 56.9414 284.019 56.9414V56.9736C281.244 56.9736 278.823 56.3927 276.758 55.1992C274.66 54.0378 273.047 52.3603 271.886 50.2637C270.723 48.1344 270.143 45.6818 270.143 42.875V42.1982C270.143 39.3592 270.723 36.8744 271.886 34.7451C273.047 32.6162 274.66 30.9709 276.694 29.8096C278.759 28.6483 281.083 28.0352 283.761 28.0352ZM358.539 28.0352C361.217 28.0352 363.379 28.5838 365.38 29.6807C367.381 30.7776 368.898 32.3581 370.027 34.4229C371.158 36.4874 371.705 38.875 371.705 41.6494V43.6494H349.373C349.469 46.5851 350.437 48.9085 352.213 50.5537C353.988 52.2313 356.247 53.038 358.925 53.0381C361.604 53.0381 363.088 52.4893 364.347 51.4248C365.606 50.3602 366.574 49.0698 367.253 47.5537L371.06 49.3926C370.512 50.5536 369.737 51.7149 368.736 52.876C367.737 54.0373 366.445 55.0061 364.864 55.7803C363.282 56.5545 361.249 56.9414 358.797 56.9414V56.9736C356.021 56.9736 353.6 56.3928 351.534 55.1992C349.438 54.0378 347.823 52.3603 346.662 50.2637C345.501 48.1344 344.919 45.6818 344.919 42.875V42.1982C344.919 39.3592 345.501 36.8744 346.662 34.7451C347.823 32.6162 349.438 30.9709 351.471 29.8096C353.537 28.6483 355.86 28.0352 358.539 28.0352ZM179.167 56.165H174.843V51.6162H174.068C173.326 53.0033 172.164 54.2294 170.583 55.3262C169.002 56.3908 166.807 56.9394 163.967 56.9395L163.999 56.9717C161.643 56.9717 159.48 56.4231 157.512 55.2939C155.543 54.165 153.962 52.5519 152.801 50.4229C151.639 48.2937 151.058 45.7773 151.058 42.874V42.1318C151.058 39.2284 151.639 36.7112 152.801 34.6143C153.962 32.5176 155.511 30.8722 157.479 29.7432C159.448 28.614 161.611 28.0332 163.999 28.0332C166.387 28.0332 167.517 28.2915 168.84 28.7754C170.163 29.2916 171.228 29.9044 172.067 30.6787C172.874 31.453 173.52 32.2598 173.972 33.1309H174.746V17H179.167V56.165ZM329.429 28.0645C332.558 28.0645 335.044 28.7741 336.947 30.1611C338.884 31.5483 340.111 33.5168 340.659 36.0654L336.528 37.1299C336.206 35.162 335.398 33.7743 334.107 32.9678C332.849 32.1613 331.267 31.7744 329.396 31.7744C327.524 31.7744 326.072 32.1293 324.975 32.8066C323.877 33.4841 323.361 34.517 323.361 35.8721C323.361 37.2268 323.877 38.1301 324.91 38.7432C325.943 39.3561 327.298 39.8072 329.041 40.0977L331.333 40.4854C333.268 40.8079 335.011 41.2914 336.562 41.8398C338.11 42.4204 339.336 43.2596 340.272 44.3242C341.176 45.4211 341.628 46.8409 341.628 48.583C341.628 51.2605 340.627 53.3256 338.626 54.7773C336.625 56.229 333.947 56.9707 330.59 56.9707C327.202 56.9707 324.329 56.1961 322.006 54.6152C319.682 53.0345 318.263 50.5505 317.777 47.1631L321.974 46.2275C322.264 48.002 322.846 49.4218 323.651 50.4541C324.459 51.4863 325.491 52.1958 326.717 52.6475C327.944 53.0668 329.235 53.293 330.622 53.293C332.688 53.293 334.301 52.8729 335.496 52.0664C336.689 51.2599 337.303 50.1635 337.303 48.7764C337.303 47.3894 336.722 46.357 335.593 45.7764C334.463 45.1956 332.882 44.7114 330.913 44.3564L328.621 43.9697C326.878 43.6793 325.265 43.195 323.812 42.582C322.36 41.9368 321.198 41.0979 320.327 40.001C319.456 38.9364 319.036 37.5494 319.036 35.9043C319.036 33.4525 319.972 31.5162 321.876 30.1289C323.78 28.7417 326.297 28.0645 329.429 28.0645ZM230.546 32.7461H227.028C225.059 32.7461 223.445 33.2938 222.251 34.3906C221.025 35.4875 220.444 37.1977 220.444 39.5205V56.1992H215.99V28.8418H220.314V32.1973H221.09C221.574 31.0037 222.316 30.1325 223.316 29.5518C224.317 28.9711 225.64 28.7129 227.286 28.7129H230.546V32.7461ZM316.392 32.7461H312.874C310.906 32.7461 309.291 33.294 308.098 34.3906C306.871 35.4875 306.29 37.1976 306.29 39.5205V56.1992H301.836V28.8418H306.161V32.1973H306.936C307.419 31.0038 308.161 30.1325 309.162 29.5518C310.162 28.9711 311.487 28.7129 313.132 28.7129H316.392V32.7461ZM238.71 56.1953H234.287V28.8379H238.71V56.1953ZM255.297 52.9053H256.07L264.301 28.8379H269.013L259.2 56.1953H252.165L242.354 28.8379H247.066L255.297 52.9053ZM28.4131 53.8574H24.0537V49.5713H28.4131V53.8574ZM33.9355 53.8574H29.5762V49.5713H33.9355V53.8574ZM105.726 53.8574H101.365V49.5713H105.726V53.8574ZM111.247 53.8574H106.888V49.5713H111.247V53.8574ZM165.161 31.9688C162.321 31.9688 160.062 32.873 158.255 34.6797C156.448 36.4863 155.543 39.0023 155.543 42.2607V42.7764C155.543 46.0347 156.448 48.5518 158.255 50.3584C160.062 52.1648 162.386 53.0684 165.161 53.0684C168.001 53.0683 170.292 52.165 172.067 50.3584C173.842 48.5518 174.714 46.0347 174.714 42.7764V42.2607C174.714 39.0025 173.81 36.4863 172.067 34.6797C170.292 32.8731 168.001 31.9688 165.161 31.9688ZM33.9355 48.4287H29.5762V44.1426H33.9355V48.4287ZM39.458 48.4287H35.0986V44.1426H39.458V48.4287ZM105.726 48.4287H101.365V44.1426H105.726V48.4287ZM111.247 48.4287H106.888V44.1426H111.247V48.4287ZM33.9355 43H29.5762V38.7139H33.9355V43ZM39.458 43H35.0986V38.7139H39.458V43ZM105.726 43H101.365V38.7139H105.726V43ZM111.247 43H106.888V38.7139H111.247V43ZM197.915 31.9385C195.462 31.9385 193.365 32.6489 191.751 34.0684C190.137 35.4878 189.17 37.4555 188.782 40.0039H206.597C206.435 37.4555 205.596 35.4878 203.982 34.0684C202.401 32.6489 200.368 31.9385 197.915 31.9385ZM283.729 31.9385C281.276 31.9386 279.178 32.649 277.565 34.0684C275.951 35.4878 274.983 37.4554 274.596 40.0039H292.41C292.248 37.4556 291.378 35.4878 289.797 34.0684C288.216 32.6489 286.181 31.9385 283.729 31.9385ZM358.539 31.9385C356.085 31.9385 353.988 32.6489 352.374 34.0684C350.761 35.4878 349.791 37.4554 349.405 40.0039H367.219C367.058 37.4554 366.187 35.4878 364.604 34.0684C363.024 32.649 360.991 31.9385 358.539 31.9385ZM39.458 37.5713H35.0986V33.2861H39.458V37.5713ZM44.9805 37.5713H40.6201V33.2861H44.9805V37.5713ZM100.203 37.5713H95.8428V33.2861H100.203V37.5713ZM105.726 37.5713H101.365V33.2861H105.726V37.5713ZM39.458 32.1426H35.0986V27.8574H39.458V32.1426ZM44.9805 32.1426H40.6201V27.8574H44.9805V32.1426ZM50.5029 32.1426H46.1426V27.8574H50.5029V32.1426ZM94.6807 32.1426H90.3213V27.8574H94.6807V32.1426ZM100.203 32.1426H95.8428V27.8574H100.203V32.1426ZM105.726 32.1426H101.365V27.8574H105.726V32.1426ZM44.9805 26.7139H40.6201V22.4287H44.9805V26.7139ZM50.5029 26.7139H46.1426V22.4287H50.5029V26.7139ZM56.0244 26.7139H51.665V22.4287H56.0244V26.7139ZM61.5469 26.7139H57.1875V22.4287H61.5469V26.7139ZM67.0693 26.7139H62.71V22.4287H67.0693V26.7139ZM72.5918 26.7139H68.2314V22.4287H72.5918V26.7139ZM78.1143 26.7139H73.7539V22.4287H78.1143V26.7139ZM83.6357 26.7139H79.2764V22.4287H83.6357V26.7139ZM89.1582 26.7139H84.7988V22.4287H89.1582V26.7139ZM94.6807 26.7139H90.3213V22.4287H94.6807V26.7139ZM100.203 26.7139H95.8428V22.4287H100.203V26.7139ZM238.71 22.9688H234.287V17H238.71V22.9688ZM56.0244 21.2861H51.665V17H56.0244V21.2861ZM61.5469 21.2861H57.1875V17H61.5469V21.2861ZM67.0693 21.2861H62.71V17H67.0693V21.2861ZM72.5918 21.2861H68.2314V17H72.5918V21.2861ZM78.1143 21.2861H73.7539V17H78.1143V21.2861ZM83.6357 21.2861H79.2764V17H83.6357V21.2861Z" fill="white"/>
</svg>
